<svg width="160" height="160" viewBox="0 0 160 160" fill="none" xmlns="http://www.w3.org/2000/svg">
<circle cx="80" cy="80" r="79" stroke="white" stroke-width="2"/>
<path d="M39 48C37.8954 48 37 48.8954 37 50V57.4306C37 58.1881 37.428 58.8807 38.1056 59.2195L78.7722 79.5528C79.3353 79.8343 79.998 79.8343 80.5611 79.5528L121.228 59.2195C121.905 58.8807 122.333 58.1881 122.333 57.4306V50C122.333 48.8954 121.438 48 120.333 48H39ZM39.8944 70.7805C38.5646 70.1156 37 71.0826 37 72.5694V110C37 111.105 37.8954 112 39 112H120.333C121.438 112 122.333 111.105 122.333 110V72.5694C122.333 71.0826 120.769 70.1156 119.439 70.7805L80.5611 90.2195C79.998 90.501 79.3353 90.501 78.7722 90.2195L39.8944 70.7805Z" fill="white"/>
</svg>
