<?xml version="1.0" encoding="utf-8"?>
<!-- Generator: Adobe Illustrator 25.0.1, SVG Export Plug-In . SVG Version: 6.00 Build 0)  -->
<svg version="1.1" id="Calque_1" xmlns="http://www.w3.org/2000/svg" xmlns:xlink="http://www.w3.org/1999/xlink" x="0px" y="0px"
	 viewBox="0 0 317.5 87.9" style="enable-background:new 0 0 317.5 87.9;" xml:space="preserve">
<style type="text/css">
	.st0{fill:#223A7B;}
	.st1{fill:#85CAED;}
	.st2{fill:#0068B3;}
	.st3{fill:#96B522;}
	.st4{fill:#C6C741;}
	.st5{fill:#D8D596;}
	.st6{fill:#F59E00;}
	.st7{fill:#FDC61E;}
	.st8{fill:#FFE37E;}
	.st9{fill:#192440;}
	.st10{fill:#6DBE97;}
	.st11{fill:#463077;}
	.st12{fill:#6A5195;}
	.st13{fill:#8B89C2;}
	.st14{fill:#D3E6C7;}
	.st15{fill:#E83947;}
	.st16{fill:#EF7E6F;}
	.st17{fill:#F6A66D;}
	.st18{fill:#FFFFFF;}
</style>
<g>
	<g>
		<g>
			<path class="st9" d="M47.6,86.5c-23.4,0-42.5-19.1-42.5-42.5S24.2,1.4,47.6,1.4s42.5,19.1,42.5,42.5S71.1,86.5,47.6,86.5z"/>
		</g>
	</g>
	<g>
		<path class="st9" d="M104.6,28.2h14.9c6,0,10.2,2.9,10.2,8.4c0,3.1-1.3,5.3-3.8,6.5c3,1.2,5,3.6,5,7.5c0,5.7-4.1,8.9-11.4,8.9
			h-14.9v-5.1h14.9c3.8,0,5.7-1.5,5.7-4.2c0-3.1-2.3-4.4-6.2-4.4h-14.3v-4.6h15.1c2.4,0,4.3-1.4,4.3-4.1c0-2.5-1.8-3.8-4.3-3.8
			h-15.1V28.2z"/>
		<path class="st9" d="M153.4,28.2l12.7,31.3h-6.4l-2.4-6.3h-14.1l-2.4,6.3h-6.4l12.6-31.3H153.4z M145,48.2h10.3l-5.2-13.4
			L145,48.2z"/>
		<path class="st9" d="M197.9,42.5v3.9c0,8.1-5,13.6-13.7,13.6c-8.9,0-15.4-5.6-15.4-16.1c0-10.6,6.5-16.3,15.4-16.3
			c6.3,0,10.4,2.9,12.6,6.9l-4.4,3.1c-1.8-3-4.2-4.8-8.2-4.8c-5.7,0-9.3,3.8-9.3,11.1c0,7.3,3.6,11,9.3,11c4.4,0,7.6-2.3,7.9-7.5
			h-6.9v-4.8H197.9z"/>
		<path class="st9" d="M263.6,28.2c7,0,11.7,3.3,11.7,9.8c0,4.8-2.6,7.8-6.8,9.1l8.4,12.4h-6.9l-7.6-11.8h-6.8v11.8h-6V28.2H263.6z
			 M255.7,42.9h8c3.5,0,5.9-1.5,5.9-4.8c0-3.3-2.4-4.7-5.9-4.7h-8V42.9z"/>
		<path class="st9" d="M299.6,28.2l12.7,31.3h-6.4l-2.4-6.3h-14.1l-2.4,6.3h-6.4l12.6-31.3H299.6z M291.3,48.2h10.3l-5.2-13.4
			L291.3,48.2z"/>
		<path class="st9" d="M242.9,33.3h-15.1c-2.5,0-4.3,1.3-4.3,3.8c0,2.7,1.9,4.1,4.3,4.1h15.1v4.6h-14.3c-3.8,0-6.2,1.3-6.2,4.4
			c0,2.7,1.9,4.2,5.7,4.2h14.9v5.1H228c-7.3,0-11.4-3.3-11.4-8.9c0-3.9,1.9-6.2,5-7.5c-2.5-1.2-3.8-3.4-3.8-6.5
			c0-5.5,4.1-8.4,10.2-8.4h14.9V33.3z"/>
	</g>
	<g>
		<rect x="204" y="53.4" class="st10" width="6.1" height="6.1"/>
	</g>
	<path class="st18" d="M51.4,37.3c0-2.5,1.7-3.8,4-3.8h5.7v-5.1h-5.6c-3.5,0-6.3,1.1-7.9,3.3c-1.6-2.2-4.4-3.3-7.9-3.3H26v5.1h13.9
		c2.3,0,4,1.3,4,3.8c0,2.7-1.8,4-4,4H26v4.6h13.2c3.6,0,5.7,1.3,5.7,4.4c0,2.7-1.7,4.2-5.2,4.2H26v5h13.8c3.4,0,6.1-0.9,7.9-2.4
		c1.8,1.6,4.4,2.4,7.9,2.4h13.8v-5H55.6c-3.5,0-5.2-1.5-5.2-4.2c0-3.1,2.2-4.4,5.7-4.4h13.2v-4.6H55.4
		C53.2,41.3,51.4,39.9,51.4,37.3z"/>
	<rect x="64.2" y="28.3" class="st10" width="5.1" height="5.1"/>
</g>
</svg>
