<svg width="1353" height="205" viewBox="0 0 1353 205" fill="none" xmlns="http://www.w3.org/2000/svg">
<path d="M1062.85 49.9986V121.257C1062.85 137.568 1050.04 150.539 1033.93 150.539C1017.82 150.539 1005.01 137.568 1005.01 121.257V38.4354H994.539V121.257C994.539 137.568 981.734 150.539 965.625 150.539C949.516 150.539 936.705 137.568 936.705 121.257V49.9986H931.644H926.583V121.257C926.583 143.068 944.083 160.787 965.625 160.787C980.456 160.787 993.174 152.261 999.776 139.911C1006.38 152.26 1019.1 160.787 1033.93 160.787C1055.47 160.787 1072.97 143.068 1072.97 121.257V49.9986H1067.91H1062.85Z" fill="black"/>
<path d="M991.926 34V122.312C991.926 135.748 981.681 146.121 968.518 146.121C955.356 146.121 945.079 135.747 945.079 122.312V45.5829H934.54H924V122.312C924 147.06 943.966 167.357 968.518 167.357C982.882 167.357 994.597 159.468 1002.68 148.787C1010.76 159.465 1022.45 167.357 1036.81 167.357C1061.36 167.357 1081.36 147.06 1081.36 122.312V45.5829H1070.79H1060.25V51.0679V122.312C1060.25 135.747 1049.97 146.121 1036.81 146.121C1023.65 146.121 1013.4 135.748 1013.4 122.312V34H991.926ZM1002.68 122.955C1002.83 130.049 1006.41 135.808 1010.16 141.249C1009.41 140.164 1008.15 139.572 1007.52 138.399L1002.68 129.329L997.839 138.399C997.21 139.577 995.924 140.159 995.174 141.249C998.928 135.804 1002.53 130.057 1002.68 122.955ZM988.096 148.91C984.057 152.065 979.358 153.749 974.156 154.732C979.319 153.745 984.034 151.941 988.096 148.91ZM1017.23 148.91C1021.31 151.953 1026.03 153.745 1031.21 154.732C1025.99 153.752 1021.28 152.073 1017.23 148.91Z" fill="black"/>
<path d="M899.202 100.923C899.202 110.69 897.912 119.305 895.334 126.767C892.755 134.23 889.234 140.485 884.77 145.533C880.406 150.472 875.298 154.203 869.446 156.727C863.594 159.251 857.395 160.513 850.849 160.513C844.303 160.513 838.104 159.251 832.252 156.727C826.4 154.203 821.242 150.472 816.779 145.533C812.415 140.485 808.943 134.23 806.364 126.767C803.785 119.305 802.496 110.69 802.496 100.923C802.496 91.1559 803.785 82.5961 806.364 75.2434C808.943 67.7809 812.415 61.5804 816.779 56.6418C821.242 51.5937 826.4 47.8075 832.252 45.2833C838.104 42.7593 844.303 41.4974 850.849 41.4974C857.395 41.4974 863.594 42.7593 869.446 45.2833C875.298 47.8075 880.406 51.5937 884.77 56.6418C889.234 61.5804 892.755 67.7809 895.334 75.2434C897.912 82.5961 899.202 91.1559 899.202 100.923ZM888.49 100.923C888.49 93.241 887.597 86.3822 885.812 80.3464C884.027 74.2008 881.497 68.988 878.224 64.708C874.951 60.428 870.984 57.1906 866.322 54.9956C861.759 52.6911 856.602 51.5389 850.849 51.5389C845.096 51.5389 839.889 52.6911 835.227 54.9956C830.665 57.1906 826.747 60.428 823.474 64.708C820.201 68.988 817.671 74.2008 815.886 80.3464C814.101 86.3822 813.208 93.241 813.208 100.923C813.208 108.605 814.101 115.519 815.886 121.664C817.671 127.7 820.201 132.858 823.474 137.138C826.747 141.418 830.665 144.711 835.227 147.015C839.889 149.32 845.096 150.472 850.849 150.472C856.602 150.472 861.759 149.32 866.322 147.015C870.984 144.711 874.951 141.418 878.224 137.138C881.497 132.858 884.027 127.7 885.812 121.664C887.597 115.519 888.49 108.605 888.49 100.923V100.923Z" fill="black"/>
<path d="M850.863 36C843.611 36 836.625 37.4099 830.09 40.2287C823.482 43.079 817.608 47.4066 812.656 53.0066C807.748 58.5615 803.965 65.42 801.198 73.4146C798.367 81.4839 797 90.6812 797 100.932C797 111.182 798.346 120.41 801.167 128.571C803.933 136.576 807.736 143.476 812.626 149.132L812.657 149.163L812.718 149.224C817.67 154.703 823.509 158.918 830.091 161.757C836.626 164.576 843.612 166.016 850.864 166.016C858.115 166.016 865.07 164.576 871.606 161.757C878.198 158.914 884.023 154.666 888.886 149.163C893.891 143.502 897.756 136.597 900.529 128.571C903.349 120.41 904.696 111.182 904.696 100.932C904.696 90.6924 903.353 81.5082 900.529 73.4452V73.4146C897.766 65.4303 893.909 58.5862 888.916 53.0373C888.911 53.0308 888.891 53.0437 888.885 53.0373C884.027 47.4225 878.216 43.0802 871.605 40.2287C865.07 37.4099 858.115 36 850.863 36ZM868.664 50.0343L868.786 50.0956C868.769 50.0867 868.742 50.1044 868.725 50.0956C868.699 50.0832 868.691 50.0466 868.664 50.0343ZM850.863 57.0208C855.883 57.0208 860.12 58.0154 863.854 59.9012L863.915 59.9319L863.976 59.9625C867.842 61.7825 871.088 64.4116 873.872 68.0521C876.668 71.7074 878.922 76.2617 880.552 81.8719V81.9025C882.157 87.3306 883.003 93.6751 883.003 100.932C883.003 108.177 882.161 114.563 880.552 120.114C878.925 125.613 876.682 130.138 873.872 133.811C871.075 137.47 867.793 140.152 863.884 142.085L863.853 142.115C860.119 144.001 855.882 144.996 850.862 144.996C845.842 144.996 841.514 143.991 837.657 142.084C833.861 140.16 830.627 137.479 827.823 133.811C825.018 130.144 822.769 125.63 821.143 120.145V120.114C819.534 114.563 818.692 108.177 818.692 100.932C818.692 93.6752 819.538 87.3307 821.143 81.9026V81.872C822.773 76.2617 825.027 71.7074 827.823 68.0521C830.623 64.3903 833.828 61.7448 837.596 59.9319H837.628H837.659C841.517 58.0249 845.845 57.0208 850.864 57.0208H850.863Z" fill="black"/>
<path d="M797.382 39.0983V49.231H758.855V158.115H747.054V49.231H708.527V39.0983H797.382Z" fill="black"/>
<path d="M703.008 33.6413V54.7037H741.541V163.582H764.364V54.7037H802.896V33.6413H797.383H703.008Z" fill="black"/>
<path d="M245.823 33.6477H307.666C332.569 33.6477 350.001 45.6858 350.001 68.5165C350.001 81.3848 344.605 90.5171 334.229 95.4983C346.681 100.48 354.982 110.442 354.982 126.631C354.982 150.292 337.965 163.575 307.666 163.575H245.823V142.405H307.666C323.438 142.405 331.324 136.179 331.324 124.971C331.324 112.103 321.778 106.706 305.591 106.706H246.238V87.6114H308.911C318.872 87.6114 326.758 81.7999 326.758 70.5921C326.758 60.2144 319.287 54.8181 308.911 54.8181H246.238V33.6477H245.823Z" fill="black"/>
<path d="M448.369 33.6477L501.081 163.575H474.517L464.556 137.424H406.033L396.072 163.575H369.509L421.805 33.6477H448.369ZM413.504 116.669H456.255L434.672 61.0446L413.504 116.669Z" fill="black"/>
<path d="M633.067 93.2153V109.404C633.067 143.028 612.315 165.859 576.205 165.859C539.265 165.859 512.287 142.613 512.287 99.0267C512.287 55.0256 539.265 31.3647 576.205 31.3647C602.353 31.3647 619.371 43.4027 628.502 60.0069L610.239 72.8751C602.769 60.422 592.807 52.9501 576.205 52.9501C552.547 52.9501 537.605 68.7241 537.605 99.0267C537.605 129.329 552.547 144.688 576.205 144.688C594.467 144.688 607.749 135.141 608.994 113.555H580.356V93.6304H633.067V93.2153Z" fill="black"/>
<path d="M1297.8 34.6477C1326.85 34.6477 1346.36 48.3462 1346.36 75.328C1346.36 95.253 1335.57 107.706 1318.14 113.103L1353 164.575H1324.36L1292.82 115.593H1264.59V164.575H1239.69V34.6477H1297.8ZM1265.01 95.6681H1298.21C1312.74 95.6681 1322.7 89.4416 1322.7 75.7431C1322.7 62.0447 1312.74 56.2332 1298.21 56.2332H1265.01V95.6681Z" fill="black"/>
<path d="M1211.88 55.8181H1149.21C1138.83 55.8181 1131.36 61.2144 1131.36 71.5921C1131.36 82.7999 1139.25 88.6114 1149.21 88.6114H1211.88V107.706H1152.53C1136.76 107.706 1126.8 113.103 1126.8 125.971C1126.8 137.179 1134.68 143.405 1150.45 143.405H1212.3V164.576H1150.04C1119.74 164.576 1102.72 150.877 1102.72 127.631C1102.72 111.442 1110.61 101.895 1123.48 96.4983C1113.1 91.5171 1107.7 82.3848 1107.7 69.5165C1107.7 46.6858 1124.72 34.6477 1150.04 34.6477H1211.88V55.8181Z" fill="black"/>
<path d="M684.685 85.9509H659.367V111.272H684.685V85.9509Z" fill="url(#paint0_linear_4044_22970)"/>
<g filter="url(#filter0_dd_4044_22970)">
<rect x="5" y="1" width="195" height="195" rx="24.5" fill="url(#paint1_linear_4044_22970)"/>
</g>
<path fill-rule="evenodd" clip-rule="evenodd" d="M151.04 196H54.0763C54.9689 188.715 55.3586 182.869 54.6852 180.178C52.9947 173.422 43.0932 162.803 43.0932 162.803C40.6304 159.725 42.3804 155.111 46.0665 153.784H66.3577H86.036C92.4672 153.784 97.8242 150.575 101.646 146.121C105.469 150.574 110.826 153.784 117.256 153.784H159.044C162.651 155.018 164.344 159.148 161.907 162.803C161.907 162.803 152.17 173.465 150.315 180.178C149.064 184.702 150.018 190.581 151.04 196ZM67.0005 56.7567C79.1673 39.1995 91.8395 27.6776 104.479 27.2899C105.322 27.2642 106.168 27.2856 107.01 27.3602C117.49 28.2889 127.918 37.1164 137.999 56.7567L161.907 74.1415C164.443 77.9442 162.535 82.3004 158.622 83.3311H117.256C110.828 83.3311 105.479 86.5436 101.656 90.994C97.8328 86.5423 92.4756 83.3311 86.0461 83.3311H66.3577H46.3779C42.4653 82.3004 40.5576 77.9442 43.0932 74.1415L67.0005 56.7567ZM57.2769 113.24C57.4054 106.187 58.0448 99.3616 59.537 93.8162H66.3577H86.036C91.8557 93.8162 96.2419 98.0825 96.2419 103.528C96.2419 108.974 91.8557 113.24 86.036 113.24H66.3577H57.2769ZM107.111 102.524C107.623 97.6006 111.802 93.8162 117.256 93.8162L143.744 93.8167C145.236 99.3621 145.876 106.187 146.004 113.24H117.255C111.435 113.24 107.059 108.974 107.059 103.528C107.059 103.182 107.075 102.849 107.111 102.544V102.534V102.524ZM59.537 143.299C58.043 137.758 57.406 130.927 57.2769 123.876H66.3577H86.036C91.8557 123.876 96.2419 128.142 96.2419 133.587C96.2419 139.033 91.8567 143.299 86.036 143.299H66.3577H59.537ZM107.111 132.593C107.622 127.67 111.802 123.876 117.256 123.876L146.004 123.876C145.875 130.927 145.238 137.758 143.744 143.3H117.255C111.434 143.3 107.049 139.034 107.049 133.588C107.049 133.241 107.064 132.918 107.1 132.614V132.603L107.111 132.593Z" fill="white"/>
<defs>
<filter id="filter0_dd_4044_22970" x="0" y="0" width="205" height="205" filterUnits="userSpaceOnUse" color-interpolation-filters="sRGB">
<feFlood flood-opacity="0" result="BackgroundImageFix"/>
<feColorMatrix in="SourceAlpha" type="matrix" values="0 0 0 0 0 0 0 0 0 0 0 0 0 0 0 0 0 0 127 0" result="hardAlpha"/>
<feMorphology radius="1" operator="erode" in="SourceAlpha" result="effect1_dropShadow_4044_22970"/>
<feOffset dy="2"/>
<feGaussianBlur stdDeviation="2"/>
<feColorMatrix type="matrix" values="0 0 0 0 0 0 0 0 0 0 0 0 0 0 0 0 0 0 0.07 0"/>
<feBlend mode="normal" in2="BackgroundImageFix" result="effect1_dropShadow_4044_22970"/>
<feColorMatrix in="SourceAlpha" type="matrix" values="0 0 0 0 0 0 0 0 0 0 0 0 0 0 0 0 0 0 127 0" result="hardAlpha"/>
<feMorphology radius="1" operator="erode" in="SourceAlpha" result="effect2_dropShadow_4044_22970"/>
<feOffset dy="4"/>
<feGaussianBlur stdDeviation="3"/>
<feColorMatrix type="matrix" values="0 0 0 0 0 0 0 0 0 0 0 0 0 0 0 0 0 0 0.12 0"/>
<feBlend mode="normal" in2="effect1_dropShadow_4044_22970" result="effect2_dropShadow_4044_22970"/>
<feBlend mode="normal" in="SourceGraphic" in2="effect2_dropShadow_4044_22970" result="shape"/>
</filter>
<linearGradient id="paint0_linear_4044_22970" x1="646.708" y1="98.6116" x2="672.029" y2="123.93" gradientUnits="userSpaceOnUse">
<stop stop-color="#FF9955"/>
<stop offset="0.380208" stop-color="#D40055"/>
<stop offset="0.661458" stop-color="#C20061"/>
<stop offset="1" stop-color="#2C5AA0"/>
</linearGradient>
<linearGradient id="paint1_linear_4044_22970" x1="-92.5" y1="98.5" x2="102.5" y2="293.5" gradientUnits="userSpaceOnUse">
<stop stop-color="#FF9955"/>
<stop offset="0.380208" stop-color="#D40055"/>
<stop offset="0.661458" stop-color="#C20061"/>
<stop offset="1" stop-color="#2C5AA0"/>
</linearGradient>
</defs>
</svg>
